<svg width="218" height="50" viewBox="0 0 218 50" fill="none" xmlns="http://www.w3.org/2000/svg">
<path d="M72.0781 18.7852H66.8516V33H63.3359V18.7852H58.1797V15.9375H72.0781V18.7852ZM79.25 33C79.0938 32.6953 78.9805 32.3164 78.9102 31.8633C78.0898 32.7773 77.0234 33.2344 75.7109 33.2344C74.4688 33.2344 73.4375 32.875 72.6172 32.1562C71.8047 31.4375 71.3984 30.5312 71.3984 29.4375C71.3984 28.0938 71.8945 27.0625 72.8867 26.3438C73.8867 25.625 75.3281 25.2617 77.2109 25.2539H78.7695V24.5273C78.7695 23.9414 78.6172 23.4727 78.3125 23.1211C78.0156 22.7695 77.543 22.5938 76.8945 22.5938C76.3242 22.5938 75.875 22.7305 75.5469 23.0039C75.2266 23.2773 75.0664 23.6523 75.0664 24.1289H71.6797C71.6797 23.3945 71.9062 22.7148 72.3594 22.0898C72.8125 21.4648 73.4531 20.9766 74.2812 20.625C75.1094 20.2656 76.0391 20.0859 77.0703 20.0859C78.6328 20.0859 79.8711 20.4805 80.7852 21.2695C81.707 22.0508 82.168 23.1523 82.168 24.5742V30.0703C82.1758 31.2734 82.3438 32.1836 82.6719 32.8008V33H79.25ZM76.4492 30.6445C76.9492 30.6445 77.4102 30.5352 77.832 30.3164C78.2539 30.0898 78.5664 29.7891 78.7695 29.4141V27.2344H77.5039C75.8086 27.2344 74.9062 27.8203 74.7969 28.9922L74.7852 29.1914C74.7852 29.6133 74.9336 29.9609 75.2305 30.2344C75.5273 30.5078 75.9336 30.6445 76.4492 30.6445ZM91.6367 29.4961C91.6367 29.082 91.4297 28.7578 91.0156 28.5234C90.6094 28.2812 89.9531 28.0664 89.0469 27.8789C86.0312 27.2461 84.5234 25.9648 84.5234 24.0352C84.5234 22.9102 84.9883 21.9727 85.918 21.2227C86.8555 20.4648 88.0781 20.0859 89.5859 20.0859C91.1953 20.0859 92.4805 20.4648 93.4414 21.2227C94.4102 21.9805 94.8945 22.9648 94.8945 24.1758H91.5078C91.5078 23.6914 91.3516 23.293 91.0391 22.9805C90.7266 22.6602 90.2383 22.5 89.5742 22.5C89.0039 22.5 88.5625 22.6289 88.25 22.8867C87.9375 23.1445 87.7812 23.4727 87.7812 23.8711C87.7812 24.2461 87.957 24.5508 88.3086 24.7852C88.668 25.0117 89.2695 25.2109 90.1133 25.3828C90.957 25.5469 91.668 25.7344 92.2461 25.9453C94.0352 26.6016 94.9297 27.7383 94.9297 29.3555C94.9297 30.5117 94.4336 31.4492 93.4414 32.168C92.4492 32.8789 91.168 33.2344 89.5977 33.2344C88.5352 33.2344 87.5898 33.0469 86.7617 32.6719C85.9414 32.2891 85.2969 31.7695 84.8281 31.1133C84.3594 30.4492 84.125 29.7344 84.125 28.9688H87.3359C87.3672 29.5703 87.5898 30.0312 88.0039 30.3516C88.418 30.6719 88.9727 30.832 89.668 30.832C90.3164 30.832 90.8047 30.7109 91.1328 30.4688C91.4688 30.2188 91.6367 29.8945 91.6367 29.4961ZM101.727 27.9141L100.508 29.1328V33H97.1211V15H100.508V24.9727L101.164 24.1289L104.41 20.3203H108.477L103.895 25.6055L108.875 33H104.984L101.727 27.9141ZM120.734 15.9375L125.117 28.3125L129.477 15.9375H134.094V33H130.566V28.3359L130.918 20.2852L126.312 33H123.898L119.305 20.2969L119.656 28.3359V33H116.141V15.9375H120.734ZM144.289 33C144.133 32.6953 144.02 32.3164 143.949 31.8633C143.129 32.7773 142.062 33.2344 140.75 33.2344C139.508 33.2344 138.477 32.875 137.656 32.1562C136.844 31.4375 136.438 30.5312 136.438 29.4375C136.438 28.0938 136.934 27.0625 137.926 26.3438C138.926 25.625 140.367 25.2617 142.25 25.2539H143.809V24.5273C143.809 23.9414 143.656 23.4727 143.352 23.1211C143.055 22.7695 142.582 22.5938 141.934 22.5938C141.363 22.5938 140.914 22.7305 140.586 23.0039C140.266 23.2773 140.105 23.6523 140.105 24.1289H136.719C136.719 23.3945 136.945 22.7148 137.398 22.0898C137.852 21.4648 138.492 20.9766 139.32 20.625C140.148 20.2656 141.078 20.0859 142.109 20.0859C143.672 20.0859 144.91 20.4805 145.824 21.2695C146.746 22.0508 147.207 23.1523 147.207 24.5742V30.0703C147.215 31.2734 147.383 32.1836 147.711 32.8008V33H144.289ZM141.488 30.6445C141.988 30.6445 142.449 30.5352 142.871 30.3164C143.293 30.0898 143.605 29.7891 143.809 29.4141V27.2344H142.543C140.848 27.2344 139.945 27.8203 139.836 28.9922L139.824 29.1914C139.824 29.6133 139.973 29.9609 140.27 30.2344C140.566 30.5078 140.973 30.6445 141.488 30.6445ZM152.926 20.3203L153.031 21.7852C153.938 20.6523 155.152 20.0859 156.676 20.0859C158.02 20.0859 159.02 20.4805 159.676 21.2695C160.332 22.0586 160.668 23.2383 160.684 24.8086V33H157.297V24.8906C157.297 24.1719 157.141 23.6523 156.828 23.332C156.516 23.0039 155.996 22.8398 155.27 22.8398C154.316 22.8398 153.602 23.2461 153.125 24.0586V33H149.738V20.3203H152.926ZM170.609 33C170.453 32.6953 170.34 32.3164 170.27 31.8633C169.449 32.7773 168.383 33.2344 167.07 33.2344C165.828 33.2344 164.797 32.875 163.977 32.1562C163.164 31.4375 162.758 30.5312 162.758 29.4375C162.758 28.0938 163.254 27.0625 164.246 26.3438C165.246 25.625 166.688 25.2617 168.57 25.2539H170.129V24.5273C170.129 23.9414 169.977 23.4727 169.672 23.1211C169.375 22.7695 168.902 22.5938 168.254 22.5938C167.684 22.5938 167.234 22.7305 166.906 23.0039C166.586 23.2773 166.426 23.6523 166.426 24.1289H163.039C163.039 23.3945 163.266 22.7148 163.719 22.0898C164.172 21.4648 164.812 20.9766 165.641 20.625C166.469 20.2656 167.398 20.0859 168.43 20.0859C169.992 20.0859 171.23 20.4805 172.145 21.2695C173.066 22.0508 173.527 23.1523 173.527 24.5742V30.0703C173.535 31.2734 173.703 32.1836 174.031 32.8008V33H170.609ZM167.809 30.6445C168.309 30.6445 168.77 30.5352 169.191 30.3164C169.613 30.0898 169.926 29.7891 170.129 29.4141V27.2344H168.863C167.168 27.2344 166.266 27.8203 166.156 28.9922L166.145 29.1914C166.145 29.6133 166.293 29.9609 166.59 30.2344C166.887 30.5078 167.293 30.6445 167.809 30.6445ZM175.637 26.5664C175.637 24.6211 176.098 23.0547 177.02 21.8672C177.949 20.6797 179.199 20.0859 180.77 20.0859C182.16 20.0859 183.242 20.5625 184.016 21.5156L184.156 20.3203H187.227V32.5781C187.227 33.6875 186.973 34.6523 186.465 35.4727C185.965 36.293 185.258 36.918 184.344 37.3477C183.43 37.7773 182.359 37.9922 181.133 37.9922C180.203 37.9922 179.297 37.8047 178.414 37.4297C177.531 37.0625 176.863 36.5859 176.41 36L177.91 33.9375C178.754 34.8828 179.777 35.3555 180.98 35.3555C181.879 35.3555 182.578 35.1133 183.078 34.6289C183.578 34.1523 183.828 33.4727 183.828 32.5898V31.9102C183.047 32.793 182.02 33.2344 180.746 33.2344C179.223 33.2344 177.988 32.6406 177.043 31.4531C176.105 30.2578 175.637 28.6758 175.637 26.707V26.5664ZM179.023 26.8125C179.023 27.9609 179.254 28.8633 179.715 29.5195C180.176 30.168 180.809 30.4922 181.613 30.4922C182.645 30.4922 183.383 30.1055 183.828 29.332V24C183.375 23.2266 182.645 22.8398 181.637 22.8398C180.824 22.8398 180.184 23.1719 179.715 23.8359C179.254 24.5 179.023 25.4922 179.023 26.8125ZM195.676 33.2344C193.816 33.2344 192.301 32.6641 191.129 31.5234C189.965 30.3828 189.383 28.8633 189.383 26.9648V26.6367C189.383 25.3633 189.629 24.2266 190.121 23.2266C190.613 22.2188 191.309 21.4453 192.207 20.9062C193.113 20.3594 194.145 20.0859 195.301 20.0859C197.035 20.0859 198.398 20.6328 199.391 21.7266C200.391 22.8203 200.891 24.3711 200.891 26.3789V27.7617H192.816C192.926 28.5898 193.254 29.2539 193.801 29.7539C194.355 30.2539 195.055 30.5039 195.898 30.5039C197.203 30.5039 198.223 30.0312 198.957 29.0859L200.621 30.9492C200.113 31.668 199.426 32.2305 198.559 32.6367C197.691 33.0352 196.73 33.2344 195.676 33.2344ZM195.289 22.8281C194.617 22.8281 194.07 23.0547 193.648 23.5078C193.234 23.9609 192.969 24.6094 192.852 25.4531H197.562V25.1836C197.547 24.4336 197.344 23.8555 196.953 23.4492C196.562 23.0352 196.008 22.8281 195.289 22.8281ZM209.949 23.4961C209.488 23.4336 209.082 23.4023 208.73 23.4023C207.449 23.4023 206.609 23.8359 206.211 24.7031V33H202.824V20.3203H206.023L206.117 21.832C206.797 20.668 207.738 20.0859 208.941 20.0859C209.316 20.0859 209.668 20.1367 209.996 20.2383L209.949 23.4961Z" fill="#3D3D3D"/>
<g clip-path="url(#clip0)">
<path d="M35.7813 24.5215C35.5176 24.5215 35.3125 24.7363 35.3125 24.9902V31.1621C35.3125 33.125 33.7109 34.7266 31.748 34.7266H14.8633C12.9004 34.7266 11.2988 33.125 11.2988 31.1621V18.8184C11.2988 16.8555 12.9004 15.2539 14.8633 15.2539H30.1074C30.3711 15.2539 30.5762 15.0391 30.5762 14.7852C30.5762 14.5312 30.3613 14.3164 30.1074 14.3164H14.8633C12.373 14.3164 10.3516 16.3379 10.3516 18.8281V31.1719C10.3516 33.6621 12.373 35.6836 14.8633 35.6836H31.748C34.2383 35.6836 36.2598 33.6621 36.2598 31.1719V24.9902C36.2598 24.7266 36.0449 24.5215 35.7813 24.5215Z" fill="#3D3D3D"/>
<path d="M22.754 28.8281L18.4474 20.1953C18.3302 19.9609 18.4278 19.6777 18.6622 19.5606C18.8966 19.4434 19.1798 19.541 19.297 19.7754L23.0958 27.3926L38.8966 15.5371C39.1017 15.3809 39.4044 15.4199 39.5606 15.6348C39.7169 15.8496 39.6778 16.1426 39.463 16.2988L22.754 28.8281Z" fill="#3D3D3D"/>
<path d="M25 49.4141C18.4766 49.4141 12.3437 46.875 7.73437 42.2656C3.125 37.6562 0.585938 31.5234 0.585938 25C0.585938 18.4766 3.125 12.3437 7.73437 7.73437C12.3437 3.125 18.4766 0.585938 25 0.585938C31.5234 0.585938 37.6562 3.125 42.2656 7.73437C46.875 12.3437 49.4141 18.4766 49.4141 25C49.4141 31.5234 46.875 37.6562 42.2656 42.2656C37.6562 46.875 31.5234 49.4141 25 49.4141ZM25 2.14844C12.4023 2.14844 2.14844 12.4023 2.14844 25C2.14844 37.5977 12.4023 47.8516 25 47.8516C37.5977 47.8516 47.8516 37.5977 47.8516 25C47.8516 12.4023 37.5977 2.14844 25 2.14844Z" fill="#3D3D3D"/>
</g>
<defs>
<clipPath id="clip0">
<rect width="50" height="50" fill="white"/>
</clipPath>
</defs>
</svg>
