<svg width="116" height="50" viewBox="0 0 116 50" fill="none" xmlns="http://www.w3.org/2000/svg">
<path d="M105.4 23H85.5C84.4 23 83.5 23.9 83.5 25C83.5 26.1 84.4 27 85.5 27H105.4L101.4 31C100.6 31.8 100.6 33.05 101.4 33.85C101.8 34.25 102.3 34.45 102.8 34.45C103.3 34.45 103.8 34.25 104.2 33.85L111.6 26.45V26.2C111.85 25.85 111.95 25.5 111.95 25.05C111.95 24.6 111.8 24.2 111.6 23.9V23.65L104.2 16.15C103.4 15.35 102.15 15.35 101.35 16.15C100.55 16.95 100.55 18.2 101.35 19L105.4 23Z" fill="#3D3D3D"/>
<path d="M92.1 41C94.8 41 97 38.8 97 36.1V32C97 30.9 96.1 30 95 30C93.9 30 93 30.9 93 32V36.1C93 36.6 92.6 37 92.1 37H74.9C74.4 37 74 36.6 74 36.1V13.9C74 13.4 74.4 13 74.9 13H92.1C92.6 13 93 13.4 93 13.9V18C93 19.1 93.9 20 95 20C96.1 20 97 19.1 97 18V13.9C97 11.2 94.8 9 92.1 9H74.9C72.2 9 70 11.2 70 13.9V36.1C70 38.8 72.2 41 74.9 41H92.1Z" fill="#3D3D3D"/>
<path d="M21.4531 25.3945C19.5234 24.8398 18.1172 24.1602 17.2344 23.3555C16.3594 22.543 15.9219 21.543 15.9219 20.3555C15.9219 19.0117 16.457 17.9023 17.5273 17.0273C18.6055 16.1445 20.0039 15.7031 21.7227 15.7031C22.8945 15.7031 23.9375 15.9297 24.8516 16.3828C25.7734 16.8359 26.4844 17.4609 26.9844 18.2578C27.4922 19.0547 27.7461 19.9258 27.7461 20.8711H25.4844C25.4844 19.8398 25.1562 19.0312 24.5 18.4453C23.8438 17.8516 22.918 17.5547 21.7227 17.5547C20.6133 17.5547 19.7461 17.8008 19.1211 18.293C18.5039 18.7773 18.1953 19.4531 18.1953 20.3203C18.1953 21.0156 18.4883 21.6055 19.0742 22.0898C19.668 22.5664 20.6719 23.0039 22.0859 23.4023C23.5078 23.8008 24.6172 24.2422 25.4141 24.7266C26.2188 25.2031 26.8125 25.7617 27.1953 26.4023C27.5859 27.043 27.7812 27.7969 27.7812 28.6641C27.7812 30.0469 27.2422 31.1562 26.1641 31.9922C25.0859 32.8203 23.6445 33.2344 21.8398 33.2344C20.668 33.2344 19.5742 33.0117 18.5586 32.5664C17.543 32.1133 16.7578 31.4961 16.2031 30.7148C15.6562 29.9336 15.3828 29.0469 15.3828 28.0547H17.6445C17.6445 29.0859 18.0234 29.9023 18.7812 30.5039C19.5469 31.0977 20.5664 31.3945 21.8398 31.3945C23.0273 31.3945 23.9375 31.1523 24.5703 30.668C25.2031 30.1836 25.5195 29.5234 25.5195 28.6875C25.5195 27.8516 25.2266 27.207 24.6406 26.7539C24.0547 26.293 22.9922 25.8398 21.4531 25.3945ZM38.1641 33C38.0391 32.75 37.9375 32.3047 37.8594 31.6641C36.8516 32.7109 35.6484 33.2344 34.25 33.2344C33 33.2344 31.9727 32.8828 31.168 32.1797C30.3711 31.4688 29.9727 30.5703 29.9727 29.4844C29.9727 28.1641 30.4727 27.1406 31.4727 26.4141C32.4805 25.6797 33.8945 25.3125 35.7148 25.3125H37.8242V24.3164C37.8242 23.5586 37.5977 22.957 37.1445 22.5117C36.6914 22.0586 36.0234 21.832 35.1406 21.832C34.3672 21.832 33.7188 22.0273 33.1953 22.418C32.6719 22.8086 32.4102 23.2812 32.4102 23.8359H30.2305C30.2305 23.2031 30.4531 22.5938 30.8984 22.0078C31.3516 21.4141 31.9609 20.9453 32.7266 20.6016C33.5 20.2578 34.3477 20.0859 35.2695 20.0859C36.7305 20.0859 37.875 20.4531 38.7031 21.1875C39.5312 21.9141 39.9609 22.918 39.9922 24.1992V30.0352C39.9922 31.1992 40.1406 32.125 40.4375 32.8125V33H38.1641ZM34.5664 31.3477C35.2461 31.3477 35.8906 31.1719 36.5 30.8203C37.1094 30.4688 37.5508 30.0117 37.8242 29.4492V26.8477H36.125C33.4688 26.8477 32.1406 27.625 32.1406 29.1797C32.1406 29.8594 32.3672 30.3906 32.8203 30.7734C33.2734 31.1562 33.8555 31.3477 34.5664 31.3477ZM45.7461 33H43.5781V15H45.7461V33ZM51.582 33H49.4141V20.3203H51.582V33ZM49.2383 16.957C49.2383 16.6055 49.3438 16.3086 49.5547 16.0664C49.7734 15.8242 50.0938 15.7031 50.5156 15.7031C50.9375 15.7031 51.2578 15.8242 51.4766 16.0664C51.6953 16.3086 51.8047 16.6055 51.8047 16.957C51.8047 17.3086 51.6953 17.6016 51.4766 17.8359C51.2578 18.0703 50.9375 18.1875 50.5156 18.1875C50.0938 18.1875 49.7734 18.0703 49.5547 17.8359C49.3438 17.6016 49.2383 17.3086 49.2383 16.957ZM61.1914 22.2656C60.8633 22.2109 60.5078 22.1836 60.125 22.1836C58.7031 22.1836 57.7383 22.7891 57.2305 24V33H55.0625V20.3203H57.1719L57.207 21.7852C57.918 20.6523 58.9258 20.0859 60.2305 20.0859C60.6523 20.0859 60.9727 20.1406 61.1914 20.25V22.2656Z" fill="#3D3D3D"/>
</svg>
