<svg width="268" height="100" viewBox="0 0 268 100" fill="none" xmlns="http://www.w3.org/2000/svg">
<path d="M122.078 43.7852H116.852V58H113.336V43.7852H108.18V40.9375H122.078V43.7852ZM129.25 58C129.094 57.6953 128.98 57.3164 128.91 56.8633C128.09 57.7773 127.023 58.2344 125.711 58.2344C124.469 58.2344 123.438 57.875 122.617 57.1562C121.805 56.4375 121.398 55.5312 121.398 54.4375C121.398 53.0938 121.895 52.0625 122.887 51.3438C123.887 50.625 125.328 50.2617 127.211 50.2539H128.77V49.5273C128.77 48.9414 128.617 48.4727 128.312 48.1211C128.016 47.7695 127.543 47.5938 126.895 47.5938C126.324 47.5938 125.875 47.7305 125.547 48.0039C125.227 48.2773 125.066 48.6523 125.066 49.1289H121.68C121.68 48.3945 121.906 47.7148 122.359 47.0898C122.812 46.4648 123.453 45.9766 124.281 45.625C125.109 45.2656 126.039 45.0859 127.07 45.0859C128.633 45.0859 129.871 45.4805 130.785 46.2695C131.707 47.0508 132.168 48.1523 132.168 49.5742V55.0703C132.176 56.2734 132.344 57.1836 132.672 57.8008V58H129.25ZM126.449 55.6445C126.949 55.6445 127.41 55.5352 127.832 55.3164C128.254 55.0898 128.566 54.7891 128.77 54.4141V52.2344H127.504C125.809 52.2344 124.906 52.8203 124.797 53.9922L124.785 54.1914C124.785 54.6133 124.934 54.9609 125.23 55.2344C125.527 55.5078 125.934 55.6445 126.449 55.6445ZM141.637 54.4961C141.637 54.082 141.43 53.7578 141.016 53.5234C140.609 53.2812 139.953 53.0664 139.047 52.8789C136.031 52.2461 134.523 50.9648 134.523 49.0352C134.523 47.9102 134.988 46.9727 135.918 46.2227C136.855 45.4648 138.078 45.0859 139.586 45.0859C141.195 45.0859 142.48 45.4648 143.441 46.2227C144.41 46.9805 144.895 47.9648 144.895 49.1758H141.508C141.508 48.6914 141.352 48.293 141.039 47.9805C140.727 47.6602 140.238 47.5 139.574 47.5C139.004 47.5 138.562 47.6289 138.25 47.8867C137.938 48.1445 137.781 48.4727 137.781 48.8711C137.781 49.2461 137.957 49.5508 138.309 49.7852C138.668 50.0117 139.27 50.2109 140.113 50.3828C140.957 50.5469 141.668 50.7344 142.246 50.9453C144.035 51.6016 144.93 52.7383 144.93 54.3555C144.93 55.5117 144.434 56.4492 143.441 57.168C142.449 57.8789 141.168 58.2344 139.598 58.2344C138.535 58.2344 137.59 58.0469 136.762 57.6719C135.941 57.2891 135.297 56.7695 134.828 56.1133C134.359 55.4492 134.125 54.7344 134.125 53.9688H137.336C137.367 54.5703 137.59 55.0312 138.004 55.3516C138.418 55.6719 138.973 55.832 139.668 55.832C140.316 55.832 140.805 55.7109 141.133 55.4688C141.469 55.2188 141.637 54.8945 141.637 54.4961ZM151.727 52.9141L150.508 54.1328V58H147.121V40H150.508V49.9727L151.164 49.1289L154.41 45.3203H158.477L153.895 50.6055L158.875 58H154.984L151.727 52.9141ZM170.734 40.9375L175.117 53.3125L179.477 40.9375H184.094V58H180.566V53.3359L180.918 45.2852L176.312 58H173.898L169.305 45.2969L169.656 53.3359V58H166.141V40.9375H170.734ZM194.289 58C194.133 57.6953 194.02 57.3164 193.949 56.8633C193.129 57.7773 192.062 58.2344 190.75 58.2344C189.508 58.2344 188.477 57.875 187.656 57.1562C186.844 56.4375 186.438 55.5312 186.438 54.4375C186.438 53.0938 186.934 52.0625 187.926 51.3438C188.926 50.625 190.367 50.2617 192.25 50.2539H193.809V49.5273C193.809 48.9414 193.656 48.4727 193.352 48.1211C193.055 47.7695 192.582 47.5938 191.934 47.5938C191.363 47.5938 190.914 47.7305 190.586 48.0039C190.266 48.2773 190.105 48.6523 190.105 49.1289H186.719C186.719 48.3945 186.945 47.7148 187.398 47.0898C187.852 46.4648 188.492 45.9766 189.32 45.625C190.148 45.2656 191.078 45.0859 192.109 45.0859C193.672 45.0859 194.91 45.4805 195.824 46.2695C196.746 47.0508 197.207 48.1523 197.207 49.5742V55.0703C197.215 56.2734 197.383 57.1836 197.711 57.8008V58H194.289ZM191.488 55.6445C191.988 55.6445 192.449 55.5352 192.871 55.3164C193.293 55.0898 193.605 54.7891 193.809 54.4141V52.2344H192.543C190.848 52.2344 189.945 52.8203 189.836 53.9922L189.824 54.1914C189.824 54.6133 189.973 54.9609 190.27 55.2344C190.566 55.5078 190.973 55.6445 191.488 55.6445ZM202.926 45.3203L203.031 46.7852C203.938 45.6523 205.152 45.0859 206.676 45.0859C208.02 45.0859 209.02 45.4805 209.676 46.2695C210.332 47.0586 210.668 48.2383 210.684 49.8086V58H207.297V49.8906C207.297 49.1719 207.141 48.6523 206.828 48.332C206.516 48.0039 205.996 47.8398 205.27 47.8398C204.316 47.8398 203.602 48.2461 203.125 49.0586V58H199.738V45.3203H202.926ZM220.609 58C220.453 57.6953 220.34 57.3164 220.27 56.8633C219.449 57.7773 218.383 58.2344 217.07 58.2344C215.828 58.2344 214.797 57.875 213.977 57.1562C213.164 56.4375 212.758 55.5312 212.758 54.4375C212.758 53.0938 213.254 52.0625 214.246 51.3438C215.246 50.625 216.688 50.2617 218.57 50.2539H220.129V49.5273C220.129 48.9414 219.977 48.4727 219.672 48.1211C219.375 47.7695 218.902 47.5938 218.254 47.5938C217.684 47.5938 217.234 47.7305 216.906 48.0039C216.586 48.2773 216.426 48.6523 216.426 49.1289H213.039C213.039 48.3945 213.266 47.7148 213.719 47.0898C214.172 46.4648 214.812 45.9766 215.641 45.625C216.469 45.2656 217.398 45.0859 218.43 45.0859C219.992 45.0859 221.23 45.4805 222.145 46.2695C223.066 47.0508 223.527 48.1523 223.527 49.5742V55.0703C223.535 56.2734 223.703 57.1836 224.031 57.8008V58H220.609ZM217.809 55.6445C218.309 55.6445 218.77 55.5352 219.191 55.3164C219.613 55.0898 219.926 54.7891 220.129 54.4141V52.2344H218.863C217.168 52.2344 216.266 52.8203 216.156 53.9922L216.145 54.1914C216.145 54.6133 216.293 54.9609 216.59 55.2344C216.887 55.5078 217.293 55.6445 217.809 55.6445ZM225.637 51.5664C225.637 49.6211 226.098 48.0547 227.02 46.8672C227.949 45.6797 229.199 45.0859 230.77 45.0859C232.16 45.0859 233.242 45.5625 234.016 46.5156L234.156 45.3203H237.227V57.5781C237.227 58.6875 236.973 59.6523 236.465 60.4727C235.965 61.293 235.258 61.918 234.344 62.3477C233.43 62.7773 232.359 62.9922 231.133 62.9922C230.203 62.9922 229.297 62.8047 228.414 62.4297C227.531 62.0625 226.863 61.5859 226.41 61L227.91 58.9375C228.754 59.8828 229.777 60.3555 230.98 60.3555C231.879 60.3555 232.578 60.1133 233.078 59.6289C233.578 59.1523 233.828 58.4727 233.828 57.5898V56.9102C233.047 57.793 232.02 58.2344 230.746 58.2344C229.223 58.2344 227.988 57.6406 227.043 56.4531C226.105 55.2578 225.637 53.6758 225.637 51.707V51.5664ZM229.023 51.8125C229.023 52.9609 229.254 53.8633 229.715 54.5195C230.176 55.168 230.809 55.4922 231.613 55.4922C232.645 55.4922 233.383 55.1055 233.828 54.332V49C233.375 48.2266 232.645 47.8398 231.637 47.8398C230.824 47.8398 230.184 48.1719 229.715 48.8359C229.254 49.5 229.023 50.4922 229.023 51.8125ZM245.676 58.2344C243.816 58.2344 242.301 57.6641 241.129 56.5234C239.965 55.3828 239.383 53.8633 239.383 51.9648V51.6367C239.383 50.3633 239.629 49.2266 240.121 48.2266C240.613 47.2188 241.309 46.4453 242.207 45.9062C243.113 45.3594 244.145 45.0859 245.301 45.0859C247.035 45.0859 248.398 45.6328 249.391 46.7266C250.391 47.8203 250.891 49.3711 250.891 51.3789V52.7617H242.816C242.926 53.5898 243.254 54.2539 243.801 54.7539C244.355 55.2539 245.055 55.5039 245.898 55.5039C247.203 55.5039 248.223 55.0312 248.957 54.0859L250.621 55.9492C250.113 56.668 249.426 57.2305 248.559 57.6367C247.691 58.0352 246.73 58.2344 245.676 58.2344ZM245.289 47.8281C244.617 47.8281 244.07 48.0547 243.648 48.5078C243.234 48.9609 242.969 49.6094 242.852 50.4531H247.562V50.1836C247.547 49.4336 247.344 48.8555 246.953 48.4492C246.562 48.0352 246.008 47.8281 245.289 47.8281ZM259.949 48.4961C259.488 48.4336 259.082 48.4023 258.73 48.4023C257.449 48.4023 256.609 48.8359 256.211 49.7031V58H252.824V45.3203H256.023L256.117 46.832C256.797 45.668 257.738 45.0859 258.941 45.0859C259.316 45.0859 259.668 45.1367 259.996 45.2383L259.949 48.4961Z" fill="white"/>
<g clip-path="url(#clip0)">
<path d="M71.5625 49.043C71.0352 49.043 70.625 49.4727 70.625 49.9805V62.3242C70.625 66.25 67.4219 69.4531 63.4961 69.4531H29.7266C25.8008 69.4531 22.5977 66.25 22.5977 62.3242V37.6367C22.5977 33.7109 25.8008 30.5078 29.7266 30.5078H60.2148C60.7422 30.5078 61.1523 30.0781 61.1523 29.5703C61.1523 29.0625 60.7227 28.6328 60.2148 28.6328H29.7266C24.7461 28.6328 20.7031 32.6758 20.7031 37.6562V62.3438C20.7031 67.3242 24.7461 71.3672 29.7266 71.3672H63.4961C68.4766 71.3672 72.5195 67.3242 72.5195 62.3438V49.9805C72.5195 49.4531 72.0898 49.043 71.5625 49.043Z" fill="white"/>
<path d="M45.5078 57.6562L36.8945 40.3906C36.6602 39.9219 36.8555 39.3555 37.3242 39.1211C37.793 38.8867 38.3594 39.082 38.5938 39.5508L46.1914 54.7851L77.793 31.0742C78.2031 30.7617 78.8086 30.8398 79.1211 31.2695C79.4336 31.6992 79.3555 32.2851 78.9258 32.5976L45.5078 57.6562Z" fill="white"/>
<path d="M50 98.8281C36.9531 98.8281 24.6875 93.75 15.4687 84.5312C6.25 75.3125 1.17188 63.0469 1.17188 50C1.17188 36.9531 6.25 24.6875 15.4687 15.4687C24.6875 6.25 36.9531 1.17188 50 1.17188C63.0469 1.17188 75.3125 6.25 84.5312 15.4687C93.75 24.6875 98.8281 36.9531 98.8281 50C98.8281 63.0469 93.75 75.3125 84.5312 84.5312C75.3125 93.75 63.0469 98.8281 50 98.8281ZM50 4.29688C24.8047 4.29688 4.29688 24.8047 4.29688 50C4.29688 75.1953 24.8047 95.7031 50 95.7031C75.1953 95.7031 95.7031 75.1953 95.7031 50C95.7031 24.8047 75.1953 4.29688 50 4.29688Z" fill="white"/>
</g>
<defs>
<clipPath id="clip0">
<rect width="100" height="100" fill="white"/>
</clipPath>
</defs>
</svg>
